<svg width="18" height="14" viewBox="0 0 18 14" fill="none" xmlns="http://www.w3.org/2000/svg">
<path d="M1.53 2.652C1.06166 2.35929 0.444712 2.50166 0.152002 2.97C-0.140709 3.43834 0.00166452 4.05529 0.470001 4.348L1.53 2.652ZM17.9744 3.72486C18.0986 3.18672 17.763 2.6498 17.2249 2.52561L8.45534 0.501873C7.9172 0.377687 7.38028 0.713264 7.25609 1.2514C7.1319 1.78955 7.46748 2.32647 8.00562 2.45066L15.8007 4.24953L14.0019 12.0447C13.8777 12.5828 14.2133 13.1197 14.7514 13.2439C15.2895 13.3681 15.8265 13.0325 15.9507 12.4944L17.9744 3.72486ZM8.47 8.16875L7.94 9.01675L8.47 8.16875ZM9.53 8.16875L9 7.32075L9.53 8.16875ZM0.470001 4.348L7.94 9.01675L9 7.32075L1.53 2.652L0.470001 4.348ZM10.06 9.01675L17.53 4.348L16.47 2.652L9 7.32075L10.06 9.01675ZM7.94 9.01675C8.58854 9.42209 9.41146 9.42209 10.06 9.01675L9 7.32075L9 7.32075L7.94 9.01675Z" fill="#FFAA00"/>
</svg>
